<?xml version="1.0" standalone="no"?>
<!DOCTYPE svg PUBLIC "-//W3C//DTD SVG 20010904//EN"
 "http://www.w3.org/TR/2001/REC-SVG-20010904/DTD/svg10.dtd">
<svg version="1.0" xmlns="http://www.w3.org/2000/svg"
 viewBox="0 0 1280.000000 1234.000000"
 preserveAspectRatio="xMidYMid meet">
<metadata>
Created by potrace 1.15, written by Peter Selinger 2001-2017
</metadata>
<g transform="translate(0.000000,1234.000000) scale(0.100000,-0.100000)"
fill="#ffc107" stroke="none">
<path d="M6293 11153 c-37 -40 -297 -432 -375 -568 -53 -91 -298 -594 -298
-611 0 -3 -18 -44 -41 -92 -23 -48 -52 -112 -66 -142 -14 -30 -38 -82 -53
-115 -79 -168 -120 -257 -120 -260 0 -1 -29 -64 -65 -140 -36 -75 -65 -138
-65 -140 0 -6 -111 -239 -179 -374 -118 -236 -203 -361 -323 -477 -174 -168
-365 -251 -763 -333 -97 -20 -242 -46 -1060 -191 -1040 -185 -1013 -178 -1403
-343 -46 -20 -146 -57 -223 -82 -145 -49 -179 -71 -179 -120 0 -33 39 -77 224
-246 279 -256 336 -303 1341 -1119 680 -552 722 -586 855 -720 100 -99 121
-127 157 -200 62 -127 83 -231 84 -403 0 -78 -2 -153 -5 -166 -3 -14 -8 -45
-11 -70 -3 -25 -7 -57 -10 -71 -3 -14 -8 -45 -11 -70 -3 -25 -8 -48 -11 -52
-2 -4 -9 -34 -14 -65 -18 -96 -58 -296 -134 -658 -62 -296 -77 -369 -80 -392
-2 -12 -7 -36 -11 -55 -4 -18 -8 -35 -9 -38 -1 -3 -5 -25 -9 -50 -5 -25 -19
-94 -33 -154 -13 -60 -30 -144 -38 -185 -22 -122 -25 -135 -31 -161 -3 -14 -8
-38 -10 -55 -3 -16 -13 -73 -24 -125 -27 -133 -47 -292 -65 -525 -8 -110 -22
-269 -31 -352 -14 -125 -14 -158 -4 -183 14 -34 43 -45 93 -36 66 13 763 367
1127 574 63 36 169 95 235 132 66 37 237 132 380 212 993 554 1116 619 1263
668 160 53 280 47 467 -21 91 -33 435 -201 710 -346 83 -44 227 -119 320 -168
94 -48 215 -111 270 -140 55 -29 145 -76 200 -105 247 -130 751 -384 865 -435
294 -134 487 -217 517 -222 52 -9 80 3 92 39 9 25 6 91 -14 302 -47 503 -73
679 -190 1281 -26 132 -62 321 -80 420 -34 179 -53 279 -139 725 -69 358 -85
453 -106 605 -38 276 -7 487 92 634 35 52 202 221 323 327 76 67 422 358 1150
965 516 431 950 821 981 880 39 77 11 99 -185 145 -86 20 -232 60 -326 89
-359 112 -396 118 -1225 205 -1126 117 -1122 117 -1290 145 -246 41 -421 103
-561 200 -108 75 -250 239 -328 380 -12 22 -34 60 -48 85 -28 51 -306 605
-463 925 -379 773 -488 987 -579 1142 -87 148 -305 481 -332 506 -43 40 -82
37 -126 -10z"/>
</g>
</svg>
